TITLE ""
FILE "Step1_Track37.mp3" MP3
  TRACK 01 AUDIO
    TITLE "Step1_Track37_01"
    INDEX 01 00:00:00
  TRACK 02 AUDIO
    TITLE "Step1_Track37_02"
    INDEX 01 00:00:22
  TRACK 03 AUDIO
    TITLE "Step1_Track37_03"
    INDEX 01 00:02:03
  TRACK 04 AUDIO
    TITLE "Step1_Track37_04"
    INDEX 01 00:02:62
  TRACK 05 AUDIO
    TITLE "Step1_Track37_05"
    INDEX 01 00:03:58
  TRACK 06 AUDIO
    TITLE "Step1_Track37_06"
    INDEX 01 00:04:02
  TRACK 07 AUDIO
    TITLE "Step1_Track37_07"
    INDEX 01 00:05:47
  TRACK 08 AUDIO
    TITLE "Step1_Track37_08"
    INDEX 01 00:06:01
  TRACK 09 AUDIO
    TITLE "Step1_Track37_09"
    INDEX 01 00:07:04
  TRACK 10 AUDIO
    TITLE "Step1_Track37_10"
    INDEX 01 00:07:24
  TRACK 11 AUDIO
    TITLE "Step1_Track37_11"
    INDEX 01 00:09:05
  TRACK 12 AUDIO
    TITLE "Step1_Track37_12"
    INDEX 01 00:09:29
  TRACK 13 AUDIO
    TITLE "Step1_Track37_13"
    INDEX 01 00:10:36
  TRACK 14 AUDIO
    TITLE "Step1_Track37_14"
    INDEX 01 00:10:38
  TRACK 15 AUDIO
    TITLE "Step1_Track37_15"
    INDEX 01 00:12:49
  TRACK 16 AUDIO
    TITLE "Step1_Track37_16"
    INDEX 01 00:13:01
  TRACK 17 AUDIO
    TITLE "Step1_Track37_17"
    INDEX 01 00:14:05
  TRACK 18 AUDIO
    TITLE "Step1_Track37_18"
    INDEX 01 00:14:26
  TRACK 19 AUDIO
    TITLE "Step1_Track37_19"
    INDEX 01 00:16:15
  TRACK 20 AUDIO
    TITLE "Step1_Track37_20"
    INDEX 01 00:16:50
  TRACK 21 AUDIO
    TITLE "Step1_Track37_21"
    INDEX 01 00:17:48
  TRACK 22 AUDIO
    TITLE "Step1_Track37_22"
    INDEX 01 00:17:70
  TRACK 23 AUDIO
    TITLE "Step1_Track37_23"
    INDEX 01 00:19:57
  TRACK 24 AUDIO
    TITLE "Step1_Track37_24"
    INDEX 01 00:20:07
  TRACK 25 AUDIO
    TITLE "Step1_Track37_25"
    INDEX 01 00:21:16
  TRACK 26 AUDIO
    TITLE "Step1_Track37_26"
    INDEX 01 00:21:22
  TRACK 27 AUDIO
    TITLE "Step1_Track37_27"
    INDEX 01 00:23:68
  TRACK 28 AUDIO
    TITLE "Step1_Track37_28"
    INDEX 01 00:24:17
  TRACK 29 AUDIO
    TITLE "Step1_Track37_29"
    INDEX 01 00:25:26
  TRACK 30 AUDIO
    TITLE "Step1_Track37_30"
    INDEX 01 00:25:32
  TRACK 31 AUDIO
    TITLE "Step1_Track37_31"
    INDEX 01 00:27:50
  TRACK 32 AUDIO
    TITLE "Step1_Track37_32"
    INDEX 01 00:28:03
  TRACK 33 AUDIO
    TITLE "Step1_Track37_33"
    INDEX 01 00:28:58
  TRACK 34 AUDIO
    TITLE "Step1_Track37_34"
    INDEX 01 00:29:08
  TRACK 35 AUDIO
    TITLE "Step1_Track37_35"
    INDEX 01 00:30:72
  TRACK 36 AUDIO
    TITLE "Step1_Track37_36"
    INDEX 01 00:31:32
  TRACK 37 AUDIO
    TITLE "Step1_Track37_37"
    INDEX 01 00:32:40
  TRACK 38 AUDIO
    TITLE "Step1_Track37_38"
    INDEX 01 00:32:42
  TRACK 39 AUDIO
    TITLE "Step1_Track37_39"
    INDEX 01 00:34:33
  TRACK 40 AUDIO
    TITLE "Step1_Track37_40"
    INDEX 01 00:34:56
  TRACK 41 AUDIO
    TITLE "Step1_Track37_41"
    INDEX 01 00:35:56
  TRACK 42 AUDIO
    TITLE "Step1_Track37_42"
    INDEX 01 00:35:65
  TRACK 43 AUDIO
    TITLE "Step1_Track37_43"
    INDEX 01 00:37:66
